<svg width="526" height="102" viewBox="0 0 526 102" fill="none" xmlns="http://www.w3.org/2000/svg">
<path d="M117.625 58.9966C119.298 58.9966 121.12 58.849 123.089 58.5536C125.156 58.1598 126.682 57.6675 127.667 57.0768V45.2627L117.034 46.1488C114.277 46.3457 112.013 46.9364 110.241 47.9209C108.469 48.9054 107.583 50.3822 107.583 52.3512C107.583 54.3202 108.321 55.9446 109.798 57.2245C111.373 58.4059 113.982 58.9966 117.625 58.9966ZM116.443 0.959869C121.76 0.959869 126.584 1.50135 130.916 2.58431C135.346 3.66727 139.087 5.34093 142.139 7.6053C145.289 9.77122 147.702 12.5771 149.375 16.0229C151.049 19.3702 151.886 23.3574 151.886 27.9846V61.0641C151.886 63.6238 151.147 65.7405 149.671 67.4141C148.292 68.9893 146.619 70.3677 144.65 71.5491C138.25 75.3887 129.242 77.3084 117.625 77.3084C112.407 77.3084 107.681 76.8162 103.448 75.8317C99.313 74.8472 95.7195 73.3704 92.6675 71.4014C89.714 69.4324 87.4004 66.9219 85.7268 63.8699C84.1515 60.8179 83.3639 57.2737 83.3639 53.2372C83.3639 46.4441 85.3822 41.2263 89.4187 37.5836C93.4552 33.9409 99.7068 31.6765 108.174 30.7905L127.519 28.723V27.6893C127.519 24.8342 126.239 22.816 123.68 21.6346C121.218 20.3547 117.625 19.7148 112.899 19.7148C109.158 19.7148 105.515 20.1086 101.971 20.8962C96.5181 22.108 92.153 25.9219 89.1233 19.8624C88.2373 17.9919 87.7942 16.0721 87.7942 14.1031C87.7942 11.5433 88.3849 9.5251 89.5663 8.04834C90.8462 6.47312 92.766 5.14404 95.3257 4.06108C98.1808 2.97812 101.528 2.1905 105.368 1.69825C109.306 1.20599 112.998 0.959869 116.443 0.959869Z" fill="#373737"/>
<path d="M284.626 58.9966C286.3 58.9966 288.121 58.849 290.09 58.5536C292.157 58.1598 293.683 57.6675 294.668 57.0768V45.2627L284.035 46.1488C281.279 46.3457 279.014 46.9364 277.242 47.9209C275.47 48.9054 274.584 50.3822 274.584 52.3512C274.584 54.3202 275.322 55.9446 276.799 57.2245C278.374 58.4059 280.983 58.9966 284.626 58.9966ZM283.444 0.959869C288.761 0.959869 293.585 1.50135 297.917 2.58431C302.347 3.66727 306.088 5.34093 309.14 7.6053C312.291 9.77122 314.703 12.5771 316.376 16.0229C318.05 19.3702 318.887 23.3574 318.887 27.9846V61.0641C318.887 63.6238 318.148 65.7405 316.672 67.4141C315.293 68.9893 313.62 70.3677 311.651 71.5491C305.251 75.3887 296.243 77.3084 284.626 77.3084C279.408 77.3084 274.682 76.8162 270.449 75.8317C266.314 74.8472 262.721 73.3704 259.669 71.4014C256.715 69.4324 254.401 66.9219 252.728 63.8699C251.153 60.8179 250.365 57.2737 250.365 53.2372C250.365 46.4441 252.383 41.2263 256.42 37.5836C260.456 33.9409 266.708 31.6765 275.175 30.7905L294.52 28.723V27.6893C294.52 24.8342 293.24 22.816 290.681 21.6346C288.219 20.3547 284.626 19.7148 279.9 19.7148C276.159 19.7148 272.516 20.1086 268.972 20.8962C263.519 22.108 259.154 25.9219 256.124 19.8624C255.238 17.9919 254.795 16.0721 254.795 14.1031C254.795 11.5433 255.386 9.5251 256.567 8.04834C257.847 6.47312 259.767 5.14404 262.327 4.06108C265.182 2.97812 268.529 2.1905 272.369 1.69825C276.307 1.20599 279.999 0.959869 283.444 0.959869Z" fill="#373737"/>
<path d="M343.73 56.6338C342.647 54.1725 341.465 51.4159 340.186 48.3639C339.004 45.312 337.724 41.817 336.346 37.8789C335.066 33.9409 333.688 29.4614 332.211 24.4404C330.11 16.6356 324.23 7.24212 333.245 3.32269C335.608 2.23973 338.167 1.69825 340.924 1.69825C344.37 1.69825 347.225 2.43663 349.489 3.91339C351.754 5.29171 353.427 7.94987 354.51 11.8879L366.177 52.4989H366.767C367.949 49.1515 369.081 45.5089 370.164 41.5708C371.345 37.6328 372.478 33.5963 373.56 29.4614C374.643 25.228 375.628 21.0438 376.514 16.9089C378.812 7.02564 378.902 1.69825 390.691 1.69825C394.137 1.69825 396.992 2.43663 399.256 3.91339C401.52 5.39016 402.653 7.94988 402.653 11.5926C402.653 14.2507 402.308 17.3519 401.619 20.8962C400.93 24.342 399.994 28.0339 398.813 31.9719C397.73 35.9099 396.401 39.9956 394.826 44.229C393.349 48.364 391.774 52.4496 390.1 56.4861C388.427 60.5226 386.704 64.3622 384.931 68.0049C383.159 71.5491 381.436 74.7487 379.763 77.6038C377.006 82.4279 374.446 86.3659 372.084 89.4179C369.721 92.4699 367.456 94.8327 365.291 96.5064C363.125 98.2785 360.959 99.4599 358.793 100.051C356.627 100.74 354.362 101.084 352 101.084C347.865 101.084 344.517 99.8537 341.958 97.3924C335.555 91.2359 338.864 88.0285 346.831 79.5236C350.633 75.4652 351.112 72.3925 349.287 68.5014C348.164 66.1063 345.994 61.6548 343.73 56.6338Z" fill="#373737"/>
<path d="M443.118 58.9966C444.792 58.9966 446.613 58.849 448.582 58.5536C450.65 58.1598 452.176 57.6675 453.16 57.0768V45.2627L442.527 46.1488C439.771 46.3457 437.507 46.9364 435.734 47.9209C433.962 48.9054 433.076 50.3822 433.076 52.3512C433.076 54.3202 433.815 55.9446 435.291 57.2245C436.867 58.4059 439.476 58.9966 443.118 58.9966ZM441.937 0.959869C447.253 0.959869 452.077 1.50135 456.409 2.58431C460.839 3.66727 464.581 5.34093 467.633 7.6053C470.783 9.77122 473.195 12.5771 474.869 16.0229C476.542 19.3702 477.379 23.3574 477.379 27.9846V61.0641C477.379 63.6238 476.641 65.7405 475.164 67.4141C473.786 68.9893 472.112 70.3677 470.143 71.5491C463.744 75.3887 454.735 77.3084 443.118 77.3084C437.9 77.3084 433.175 76.8162 428.941 75.8317C424.806 74.8472 421.213 73.3704 418.161 71.4014C415.207 69.4324 412.894 66.9219 411.22 63.8699C409.645 60.8179 408.857 57.2737 408.857 53.2372C408.857 46.4441 410.876 41.2263 414.912 37.5836C418.949 33.9409 425.2 31.6765 433.667 30.7905L453.013 28.723V27.6893C453.013 24.8342 451.733 22.816 449.173 21.6346C446.712 20.3547 443.118 19.7148 438.393 19.7148C434.651 19.7148 431.009 20.1086 427.465 20.8962C422.011 22.108 417.646 25.9219 414.617 19.8624C413.731 17.9919 413.288 16.0721 413.288 14.1031C413.288 11.5433 413.878 9.5251 415.06 8.04834C416.34 6.47312 418.259 5.14404 420.819 4.06108C423.674 2.97812 427.021 2.1905 430.861 1.69825C434.799 1.20599 438.491 0.959869 441.937 0.959869Z" fill="#373737"/>
<path d="M200.684 0.959902C206.591 0.959902 212.055 1.7475 217.076 3.32272C222.195 4.79948 226.576 7.11308 230.219 10.2635C233.862 13.4139 236.717 17.4012 238.784 22.2253C240.852 26.9509 241.885 32.6118 241.885 39.208C241.885 45.5089 240.999 51.0222 239.227 55.7478C237.455 60.4734 234.945 64.4607 231.696 67.7096C228.447 70.86 224.509 73.2228 219.882 74.798C215.353 76.3733 210.283 77.1609 204.671 77.1609C200.438 77.1609 196.5 76.5209 192.857 75.2411V95.325C192.857 98.084 190.297 100.346 188.131 100.641C185.965 101.035 183.75 101.232 181.486 101.232C179.32 101.232 177.351 101.084 175.579 100.789C173.905 100.494 172.478 99.903 171.296 99.0169C170.115 98.1309 169.229 96.9002 168.638 95.325C168.047 93.8483 167.752 91.8792 167.752 89.418V18.5334C167.752 15.8752 168.294 13.7093 169.376 12.0356C170.558 10.362 172.133 8.83596 174.102 7.45765C177.154 5.48864 180.944 3.91343 185.473 2.73202C190.002 1.5506 195.072 0.959902 200.684 0.959902ZM200.979 57.3722C211.12 57.3722 216.19 51.3175 216.19 39.208C216.19 32.9072 214.91 28.2308 212.35 25.1788C209.889 22.1268 206.296 20.6008 201.57 20.6008C199.699 20.6008 198.026 20.847 196.549 21.3392C195.072 21.733 193.792 22.2253 192.709 22.816V55.3048C193.891 55.8955 195.171 56.3877 196.549 56.7815C197.927 57.1753 199.404 57.3722 200.979 57.3722Z" fill="#373737"/>
<path d="M33.0275 0.959869C38.9346 0.959869 44.3986 1.74747 49.4196 3.32269C54.539 4.79945 58.9201 7.11305 62.5628 10.2635C66.2054 13.4139 69.0605 17.4012 71.128 22.2253C73.1954 26.9509 74.2292 32.6118 74.2292 39.208C74.2292 45.5089 73.3431 51.0221 71.571 55.7478C69.7989 60.4734 67.2884 64.4607 64.0395 67.7095C60.7906 70.86 56.8526 73.2228 52.2254 74.798C47.6967 76.3732 42.6265 77.1608 37.0148 77.1608C32.7814 77.1608 28.8433 76.5209 25.2007 75.241V95.325C25.2007 98.084 22.6409 100.346 20.475 100.641C18.3091 101.035 16.094 101.232 13.8296 101.232C11.6637 101.232 9.69467 101.084 7.92255 100.789C6.24889 100.494 4.82134 99.903 3.63993 99.0169C2.45852 98.1308 1.57247 96.9002 0.981768 95.325C0.391063 93.8482 0.0957031 91.8792 0.0957031 89.418V18.5333C0.0957031 15.8752 0.637186 13.7093 1.72015 12.0356C2.90156 10.3619 4.47677 8.83593 6.44578 7.45762C9.49776 5.4886 13.2881 3.91339 17.8169 2.73198C22.3456 1.55057 27.4158 0.959869 33.0275 0.959869ZM33.3229 57.3722C43.4633 57.3722 48.5335 51.3175 48.5335 39.208C48.5335 32.9072 47.2536 28.2308 44.6939 25.1788C42.2326 22.1268 38.6392 20.6008 33.9136 20.6008C32.043 20.6008 30.3693 20.8469 28.8926 21.3392C27.4158 21.733 26.1359 22.2253 25.053 22.816V55.3047C26.2344 55.8954 27.5143 56.3877 28.8926 56.7815C30.2709 57.1753 31.7476 57.3722 33.3229 57.3722Z" fill="#373737"/>
<circle cx="513.761" cy="65.1362" r="12.1434" fill="#FE1C64"/>
</svg>
