<svg width="1501" height="500" viewBox="0 0 1501 500" fill="none" xmlns="http://www.w3.org/2000/svg">
<g clip-path="url(#clip0_1550_3464)">
<rect x="0.326172" width="1500" height="500" rx="24" fill="white"/>
<path d="M467.989 183.605V305.326H440.412L396.43 241.375H395.717V305.326H362.672V183.605H390.724L433.993 247.318H434.944V183.605H467.989ZM483.62 305.326V183.605H571.345V210.231H516.666V231.152H566.828V257.779H516.666V278.7H571.108V305.326H483.62ZM618.64 305.326L582.742 183.605H619.591L636.233 258.492H637.184L656.916 183.605H685.92L705.652 258.73H706.603L723.245 183.605H760.094L724.196 305.326H692.576L671.893 237.333H670.942L650.259 305.326H618.64ZM804.135 305.326V183.605H891.86V210.231H837.18V231.152H887.343V257.779H837.18V278.7H891.622V305.326H804.135ZM908.249 305.326V183.605H960.789C969.823 183.605 977.727 185.249 984.503 188.538C991.278 191.826 996.548 196.561 1000.31 202.743C1004.08 208.924 1005.96 216.333 1005.96 224.971C1005.96 233.688 1004.02 241.038 1000.13 247.021C996.291 253.004 990.882 257.521 983.909 260.572C976.975 263.623 968.872 265.149 959.6 265.149H928.219V239.473H952.943C956.826 239.473 960.135 238.997 962.869 238.047C965.642 237.056 967.762 235.491 969.228 233.351C970.734 231.212 971.487 228.418 971.487 224.971C971.487 221.484 970.734 218.651 969.228 216.472C967.762 214.253 965.642 212.628 962.869 211.598C960.135 210.528 956.826 209.994 952.943 209.994H941.294V305.326H908.249ZM979.57 249.458L1010 305.326H974.102L944.385 249.458H979.57ZM1051.66 305.326H1016L1056.18 183.605H1101.35L1141.53 305.326H1105.87L1079.24 217.126H1078.29L1051.66 305.326ZM1045.01 257.303H1112.05V282.028H1045.01V257.303Z" fill="#F9F9F9"/>
<path d="M238.529 227.101V262.01H231.148V227.101H238.529ZM251.726 246.873V262.01H244.465V235.828H251.386V240.447H251.692C252.272 238.925 253.244 237.72 254.607 236.834C255.971 235.936 257.624 235.487 259.567 235.487C261.386 235.487 262.971 235.885 264.323 236.68C265.675 237.476 266.726 238.612 267.476 240.089C268.226 241.555 268.601 243.305 268.601 245.339V262.01H261.34V246.635C261.351 245.032 260.942 243.782 260.113 242.885C259.283 241.976 258.141 241.521 256.687 241.521C255.709 241.521 254.846 241.731 254.096 242.152C253.357 242.572 252.778 243.186 252.357 243.993C251.948 244.788 251.738 245.748 251.726 246.873ZM288.404 235.828V241.282H272.245V235.828H288.404ZM275.944 262.01V233.936C275.944 232.038 276.313 230.464 277.052 229.214C277.802 227.964 278.824 227.027 280.12 226.402C281.415 225.777 282.887 225.464 284.535 225.464C285.648 225.464 286.665 225.55 287.586 225.72C288.518 225.89 289.211 226.044 289.665 226.18L288.37 231.635C288.086 231.544 287.734 231.459 287.313 231.379C286.904 231.3 286.484 231.26 286.052 231.26C284.984 231.26 284.239 231.51 283.819 232.01C283.398 232.498 283.188 233.186 283.188 234.072V262.01H275.944ZM292.84 262.01V235.828H300.101V262.01H292.84ZM296.488 232.453C295.408 232.453 294.482 232.095 293.709 231.379C292.948 230.652 292.567 229.782 292.567 228.771C292.567 227.771 292.948 226.913 293.709 226.197C294.482 225.47 295.408 225.106 296.488 225.106C297.567 225.106 298.488 225.47 299.249 226.197C300.022 226.913 300.408 227.771 300.408 228.771C300.408 229.782 300.022 230.652 299.249 231.379C298.488 232.095 297.567 232.453 296.488 232.453ZM313.18 246.873V262.01H305.918V235.828H312.839V240.447H313.146C313.725 238.925 314.697 237.72 316.06 236.834C317.424 235.936 319.077 235.487 321.021 235.487C322.839 235.487 324.424 235.885 325.776 236.68C327.128 237.476 328.18 238.612 328.93 240.089C329.68 241.555 330.055 243.305 330.055 245.339V262.01H322.793V246.635C322.805 245.032 322.396 243.782 321.566 242.885C320.736 241.976 319.594 241.521 318.14 241.521C317.163 241.521 316.299 241.731 315.549 242.152C314.81 242.572 314.231 243.186 313.81 243.993C313.401 244.788 313.191 245.748 313.18 246.873ZM335.778 262.01V235.828H343.039V262.01H335.778ZM339.425 232.453C338.346 232.453 337.42 232.095 336.647 231.379C335.886 230.652 335.505 229.782 335.505 228.771C335.505 227.771 335.886 226.913 336.647 226.197C337.42 225.47 338.346 225.106 339.425 225.106C340.505 225.106 341.425 225.47 342.187 226.197C342.959 226.913 343.346 227.771 343.346 228.771C343.346 229.782 342.959 230.652 342.187 231.379C341.425 232.095 340.505 232.453 339.425 232.453ZM362.782 235.828V241.282H347.015V235.828H362.782ZM350.594 229.555H357.856V253.964C357.856 254.635 357.958 255.157 358.163 255.532C358.367 255.896 358.651 256.152 359.015 256.3C359.39 256.447 359.822 256.521 360.31 256.521C360.651 256.521 360.992 256.493 361.333 256.436C361.674 256.368 361.935 256.317 362.117 256.282L363.259 261.686C362.896 261.8 362.384 261.93 361.725 262.078C361.066 262.237 360.265 262.334 359.322 262.368C357.572 262.436 356.038 262.203 354.719 261.669C353.413 261.135 352.396 260.305 351.668 259.18C350.941 258.055 350.583 256.635 350.594 254.919V229.555ZM379.163 262.521C376.469 262.521 374.151 261.976 372.208 260.885C370.276 259.782 368.788 258.226 367.742 256.214C366.697 254.192 366.174 251.8 366.174 249.038C366.174 246.345 366.697 243.981 367.742 241.947C368.788 239.913 370.259 238.328 372.157 237.192C374.066 236.055 376.305 235.487 378.873 235.487C380.6 235.487 382.208 235.765 383.697 236.322C385.197 236.868 386.503 237.692 387.617 238.794C388.742 239.896 389.617 241.282 390.242 242.953C390.867 244.612 391.18 246.555 391.18 248.782V250.777H369.072V246.277H384.344C384.344 245.231 384.117 244.305 383.663 243.498C383.208 242.692 382.577 242.061 381.771 241.606C380.975 241.14 380.049 240.907 378.992 240.907C377.89 240.907 376.913 241.163 376.06 241.675C375.219 242.175 374.56 242.851 374.083 243.703C373.606 244.544 373.361 245.481 373.35 246.515V250.794C373.35 252.089 373.589 253.209 374.066 254.152C374.555 255.095 375.242 255.822 376.128 256.334C377.015 256.845 378.066 257.101 379.282 257.101C380.089 257.101 380.827 256.987 381.498 256.76C382.168 256.532 382.742 256.192 383.219 255.737C383.697 255.282 384.06 254.726 384.31 254.067L391.026 254.51C390.685 256.123 389.986 257.532 388.93 258.737C387.884 259.93 386.532 260.862 384.873 261.532C383.225 262.192 381.322 262.521 379.163 262.521ZM412.231 244.794V250.555H396.31V244.794H412.231ZM440.202 243.294L433.555 243.703C433.441 243.135 433.197 242.623 432.822 242.169C432.447 241.703 431.952 241.334 431.339 241.061C430.736 240.777 430.015 240.635 429.174 240.635C428.049 240.635 427.1 240.873 426.327 241.351C425.555 241.817 425.168 242.442 425.168 243.226C425.168 243.851 425.418 244.379 425.918 244.811C426.418 245.243 427.276 245.589 428.492 245.851L433.231 246.805C435.776 247.328 437.674 248.169 438.924 249.328C440.174 250.487 440.799 252.01 440.799 253.896C440.799 255.612 440.293 257.118 439.282 258.413C438.282 259.709 436.907 260.72 435.157 261.447C433.418 262.163 431.413 262.521 429.14 262.521C425.674 262.521 422.913 261.8 420.856 260.356C418.81 258.902 417.611 256.925 417.259 254.425L424.401 254.05C424.617 255.106 425.14 255.913 425.969 256.47C426.799 257.015 427.861 257.288 429.157 257.288C430.43 257.288 431.452 257.044 432.225 256.555C433.009 256.055 433.407 255.413 433.418 254.629C433.407 253.97 433.128 253.43 432.583 253.01C432.038 252.578 431.197 252.248 430.06 252.021L425.526 251.118C422.969 250.606 421.066 249.72 419.816 248.459C418.577 247.197 417.958 245.589 417.958 243.635C417.958 241.953 418.413 240.504 419.322 239.288C420.242 238.072 421.532 237.135 423.191 236.476C424.861 235.817 426.816 235.487 429.055 235.487C432.361 235.487 434.964 236.186 436.861 237.584C438.771 238.981 439.884 240.885 440.202 243.294ZM457.201 262.521C454.519 262.521 452.212 261.953 450.28 260.817C448.36 259.669 446.883 258.078 445.849 256.044C444.826 254.01 444.315 251.669 444.315 249.021C444.315 246.339 444.832 243.987 445.866 241.964C446.911 239.93 448.394 238.345 450.315 237.209C452.235 236.061 454.519 235.487 457.167 235.487C459.451 235.487 461.451 235.902 463.167 236.731C464.883 237.561 466.241 238.726 467.241 240.226C468.241 241.726 468.792 243.487 468.894 245.51H462.042C461.849 244.203 461.337 243.152 460.508 242.356C459.69 241.55 458.616 241.146 457.286 241.146C456.161 241.146 455.178 241.453 454.337 242.067C453.508 242.669 452.86 243.55 452.394 244.709C451.928 245.868 451.695 247.271 451.695 248.919C451.695 250.589 451.922 252.01 452.377 253.18C452.843 254.351 453.496 255.243 454.337 255.856C455.178 256.47 456.161 256.777 457.286 256.777C458.116 256.777 458.86 256.606 459.519 256.265C460.19 255.925 460.741 255.43 461.172 254.782C461.616 254.123 461.905 253.334 462.042 252.413H468.894C468.78 254.413 468.235 256.175 467.258 257.697C466.292 259.209 464.957 260.39 463.252 261.243C461.547 262.095 459.53 262.521 457.201 262.521ZM481.009 262.504C479.339 262.504 477.85 262.214 476.543 261.635C475.236 261.044 474.202 260.175 473.441 259.027C472.691 257.868 472.316 256.425 472.316 254.697C472.316 253.243 472.583 252.021 473.117 251.032C473.651 250.044 474.378 249.248 475.299 248.646C476.219 248.044 477.265 247.589 478.435 247.282C479.617 246.976 480.856 246.76 482.151 246.635C483.674 246.476 484.901 246.328 485.833 246.192C486.765 246.044 487.441 245.828 487.861 245.544C488.282 245.26 488.492 244.839 488.492 244.282V244.18C488.492 243.101 488.151 242.265 487.469 241.675C486.799 241.084 485.844 240.788 484.606 240.788C483.299 240.788 482.259 241.078 481.486 241.657C480.714 242.226 480.202 242.942 479.952 243.805L473.236 243.26C473.577 241.669 474.248 240.294 475.248 239.135C476.248 237.964 477.538 237.067 479.117 236.442C480.708 235.805 482.549 235.487 484.64 235.487C486.094 235.487 487.486 235.657 488.816 235.998C490.157 236.339 491.344 236.868 492.378 237.584C493.424 238.3 494.248 239.22 494.85 240.345C495.452 241.459 495.753 242.794 495.753 244.351V262.01H488.867V258.379H488.663C488.242 259.197 487.68 259.919 486.975 260.544C486.271 261.157 485.424 261.64 484.435 261.993C483.447 262.334 482.305 262.504 481.009 262.504ZM483.089 257.493C484.157 257.493 485.1 257.282 485.918 256.862C486.736 256.43 487.378 255.851 487.844 255.123C488.31 254.396 488.543 253.572 488.543 252.652V249.873C488.316 250.021 488.003 250.157 487.606 250.282C487.219 250.396 486.782 250.504 486.293 250.606C485.805 250.697 485.316 250.782 484.827 250.862C484.339 250.93 483.896 250.993 483.498 251.05C482.646 251.175 481.901 251.373 481.265 251.646C480.628 251.919 480.134 252.288 479.782 252.754C479.43 253.209 479.253 253.777 479.253 254.459C479.253 255.447 479.611 256.203 480.327 256.726C481.055 257.237 481.975 257.493 483.089 257.493ZM508.648 227.101V262.01H501.387V227.101H508.648ZM514.465 262.01V235.828H521.726V262.01H514.465ZM518.113 232.453C517.033 232.453 516.107 232.095 515.334 231.379C514.573 230.652 514.192 229.782 514.192 228.771C514.192 227.771 514.573 226.913 515.334 226.197C516.107 225.47 517.033 225.106 518.113 225.106C519.192 225.106 520.113 225.47 520.874 226.197C521.647 226.913 522.033 227.771 522.033 228.771C522.033 229.782 521.647 230.652 520.874 231.379C520.113 232.095 519.192 232.453 518.113 232.453ZM534.805 246.873V262.01H527.543V235.828H534.464V240.447H534.771C535.35 238.925 536.322 237.72 537.685 236.834C539.049 235.936 540.702 235.487 542.646 235.487C544.464 235.487 546.049 235.885 547.401 236.68C548.753 237.476 549.805 238.612 550.555 240.089C551.305 241.555 551.68 243.305 551.68 245.339V262.01H544.418V246.635C544.43 245.032 544.021 243.782 543.191 242.885C542.361 241.976 541.219 241.521 539.765 241.521C538.788 241.521 537.924 241.731 537.174 242.152C536.435 242.572 535.856 243.186 535.435 243.993C535.026 244.788 534.816 245.748 534.805 246.873ZM569.198 272.373C566.846 272.373 564.829 272.05 563.147 271.402C561.476 270.765 560.147 269.896 559.158 268.794C558.17 267.692 557.528 266.453 557.232 265.078L563.948 264.175C564.153 264.697 564.476 265.186 564.92 265.64C565.363 266.095 565.948 266.459 566.675 266.731C567.414 267.015 568.312 267.157 569.369 267.157C570.948 267.157 572.249 266.771 573.272 265.998C574.306 265.237 574.823 263.959 574.823 262.163V257.373H574.516C574.198 258.101 573.721 258.788 573.084 259.436C572.448 260.084 571.63 260.612 570.63 261.021C569.63 261.43 568.437 261.635 567.05 261.635C565.084 261.635 563.295 261.18 561.681 260.271C560.079 259.351 558.8 257.947 557.846 256.061C556.903 254.163 556.431 251.765 556.431 248.868C556.431 245.902 556.914 243.425 557.88 241.436C558.846 239.447 560.13 237.959 561.732 236.97C563.346 235.981 565.113 235.487 567.033 235.487C568.499 235.487 569.726 235.737 570.715 236.237C571.704 236.726 572.499 237.339 573.101 238.078C573.715 238.805 574.187 239.521 574.516 240.226H574.789V235.828H581.999V262.265C581.999 264.493 581.454 266.356 580.363 267.856C579.272 269.356 577.761 270.481 575.829 271.231C573.908 271.993 571.698 272.373 569.198 272.373ZM569.351 256.18C570.522 256.18 571.511 255.89 572.317 255.311C573.136 254.72 573.761 253.879 574.192 252.788C574.636 251.686 574.857 250.368 574.857 248.834C574.857 247.3 574.641 245.97 574.209 244.845C573.778 243.709 573.153 242.828 572.334 242.203C571.516 241.578 570.522 241.265 569.351 241.265C568.158 241.265 567.153 241.589 566.334 242.237C565.516 242.873 564.897 243.76 564.476 244.896C564.056 246.032 563.846 247.345 563.846 248.834C563.846 250.345 564.056 251.652 564.476 252.754C564.908 253.845 565.528 254.692 566.334 255.294C567.153 255.885 568.158 256.18 569.351 256.18Z" fill="#00B8D9"/>
<path d="M598.887 262.01V235.828H605.807V240.447H606.114C606.66 238.913 607.569 237.703 608.842 236.817C610.114 235.93 611.637 235.487 613.41 235.487C615.205 235.487 616.734 235.936 617.995 236.834C619.256 237.72 620.097 238.925 620.518 240.447H620.79C621.324 238.947 622.29 237.748 623.688 236.851C625.097 235.942 626.762 235.487 628.682 235.487C631.126 235.487 633.109 236.265 634.631 237.822C636.165 239.368 636.932 241.561 636.932 244.402V262.01H629.688V245.834C629.688 244.379 629.302 243.288 628.529 242.561C627.756 241.834 626.79 241.47 625.631 241.47C624.313 241.47 623.285 241.89 622.546 242.731C621.807 243.561 621.438 244.657 621.438 246.021V262.01H614.398V245.68C614.398 244.396 614.029 243.373 613.29 242.612C612.563 241.851 611.603 241.47 610.41 241.47C609.603 241.47 608.876 241.675 608.228 242.084C607.592 242.481 607.086 243.044 606.711 243.771C606.336 244.487 606.148 245.328 606.148 246.294V262.01H598.887ZM654.498 262.521C651.85 262.521 649.56 261.959 647.628 260.834C645.708 259.697 644.225 258.118 643.18 256.095C642.134 254.061 641.611 251.703 641.611 249.021C641.611 246.317 642.134 243.953 643.18 241.93C644.225 239.896 645.708 238.317 647.628 237.192C649.56 236.055 651.85 235.487 654.498 235.487C657.146 235.487 659.43 236.055 661.35 237.192C663.282 238.317 664.771 239.896 665.816 241.93C666.861 243.953 667.384 246.317 667.384 249.021C667.384 251.703 666.861 254.061 665.816 256.095C664.771 258.118 663.282 259.697 661.35 260.834C659.43 261.959 657.146 262.521 654.498 262.521ZM654.532 256.896C655.736 256.896 656.742 256.555 657.549 255.873C658.356 255.18 658.964 254.237 659.373 253.044C659.793 251.851 660.003 250.493 660.003 248.97C660.003 247.447 659.793 246.089 659.373 244.896C658.964 243.703 658.356 242.76 657.549 242.067C656.742 241.373 655.736 241.027 654.532 241.027C653.316 241.027 652.293 241.373 651.464 242.067C650.646 242.76 650.026 243.703 649.606 244.896C649.197 246.089 648.992 247.447 648.992 248.97C648.992 250.493 649.197 251.851 649.606 253.044C650.026 254.237 650.646 255.18 651.464 255.873C652.293 256.555 653.316 256.896 654.532 256.896ZM679.367 246.873V262.01H672.106V235.828H679.026V240.447H679.333C679.913 238.925 680.884 237.72 682.248 236.834C683.611 235.936 685.265 235.487 687.208 235.487C689.026 235.487 690.611 235.885 691.964 236.68C693.316 237.476 694.367 238.612 695.117 240.089C695.867 241.555 696.242 243.305 696.242 245.339V262.01H688.981V246.635C688.992 245.032 688.583 243.782 687.753 242.885C686.924 241.976 685.782 241.521 684.327 241.521C683.35 241.521 682.486 241.731 681.736 242.152C680.998 242.572 680.418 243.186 679.998 243.993C679.589 244.788 679.378 245.748 679.367 246.873ZM713.897 262.521C711.204 262.521 708.886 261.976 706.942 260.885C705.011 259.782 703.522 258.226 702.476 256.214C701.431 254.192 700.908 251.8 700.908 249.038C700.908 246.345 701.431 243.981 702.476 241.947C703.522 239.913 704.994 238.328 706.891 237.192C708.8 236.055 711.039 235.487 713.607 235.487C715.334 235.487 716.942 235.765 718.431 236.322C719.931 236.868 721.238 237.692 722.351 238.794C723.476 239.896 724.351 241.282 724.976 242.953C725.601 244.612 725.914 246.555 725.914 248.782V250.777H703.806V246.277H719.079C719.079 245.231 718.851 244.305 718.397 243.498C717.942 242.692 717.312 242.061 716.505 241.606C715.709 241.14 714.783 240.907 713.726 240.907C712.624 240.907 711.647 241.163 710.795 241.675C709.954 242.175 709.295 242.851 708.817 243.703C708.34 244.544 708.096 245.481 708.084 246.515V250.794C708.084 252.089 708.323 253.209 708.8 254.152C709.289 255.095 709.976 255.822 710.863 256.334C711.749 256.845 712.8 257.101 714.016 257.101C714.823 257.101 715.562 256.987 716.232 256.76C716.903 256.532 717.476 256.192 717.954 255.737C718.431 255.282 718.795 254.726 719.045 254.067L725.761 254.51C725.42 256.123 724.721 257.532 723.664 258.737C722.619 259.93 721.266 260.862 719.607 261.532C717.959 262.192 716.056 262.521 713.897 262.521ZM734.432 271.828C733.512 271.828 732.648 271.754 731.842 271.606C731.046 271.47 730.387 271.294 729.864 271.078L731.501 265.657C732.353 265.919 733.12 266.061 733.802 266.084C734.495 266.106 735.092 265.947 735.592 265.606C736.103 265.265 736.518 264.686 736.836 263.868L737.262 262.76L727.87 235.828H735.506L740.927 255.055H741.199L746.671 235.828H754.359L744.182 264.839C743.694 266.248 743.029 267.476 742.188 268.521C741.359 269.578 740.307 270.39 739.035 270.959C737.762 271.538 736.228 271.828 734.432 271.828ZM790.968 243.294L784.32 243.703C784.207 243.135 783.962 242.623 783.587 242.169C783.212 241.703 782.718 241.334 782.104 241.061C781.502 240.777 780.78 240.635 779.94 240.635C778.815 240.635 777.866 240.873 777.093 241.351C776.32 241.817 775.934 242.442 775.934 243.226C775.934 243.851 776.184 244.379 776.684 244.811C777.184 245.243 778.042 245.589 779.258 245.851L783.996 246.805C786.542 247.328 788.44 248.169 789.69 249.328C790.94 250.487 791.565 252.01 791.565 253.896C791.565 255.612 791.059 257.118 790.047 258.413C789.047 259.709 787.672 260.72 785.922 261.447C784.184 262.163 782.178 262.521 779.905 262.521C776.44 262.521 773.678 261.8 771.621 260.356C769.576 258.902 768.377 256.925 768.025 254.425L775.167 254.05C775.383 255.106 775.905 255.913 776.735 256.47C777.565 257.015 778.627 257.288 779.922 257.288C781.195 257.288 782.218 257.044 782.991 256.555C783.775 256.055 784.172 255.413 784.184 254.629C784.172 253.97 783.894 253.43 783.349 253.01C782.803 252.578 781.962 252.248 780.826 252.021L776.292 251.118C773.735 250.606 771.832 249.72 770.582 248.459C769.343 247.197 768.724 245.589 768.724 243.635C768.724 241.953 769.178 240.504 770.087 239.288C771.008 238.072 772.297 237.135 773.957 236.476C775.627 235.817 777.582 235.487 779.82 235.487C783.127 235.487 785.729 236.186 787.627 237.584C789.536 238.981 790.65 240.885 790.968 243.294ZM810.063 235.828V241.282H794.296V235.828H810.063ZM797.876 229.555H805.137V253.964C805.137 254.635 805.239 255.157 805.444 255.532C805.648 255.896 805.932 256.152 806.296 256.3C806.671 256.447 807.103 256.521 807.592 256.521C807.932 256.521 808.273 256.493 808.614 256.436C808.955 256.368 809.217 256.317 809.398 256.282L810.54 261.686C810.177 261.8 809.665 261.93 809.006 262.078C808.347 262.237 807.546 262.334 806.603 262.368C804.853 262.436 803.319 262.203 802.001 261.669C800.694 261.135 799.677 260.305 798.949 259.18C798.222 258.055 797.864 256.635 797.876 254.919V229.555ZM814.793 262.01V235.828H821.833V240.396H822.106C822.583 238.771 823.384 237.544 824.509 236.714C825.634 235.873 826.93 235.453 828.396 235.453C828.759 235.453 829.151 235.476 829.572 235.521C829.992 235.567 830.361 235.629 830.68 235.709V242.152C830.339 242.05 829.867 241.959 829.265 241.879C828.663 241.8 828.111 241.76 827.611 241.76C826.543 241.76 825.589 241.993 824.748 242.459C823.918 242.913 823.259 243.55 822.771 244.368C822.293 245.186 822.055 246.129 822.055 247.197V262.01H814.793ZM845.147 262.521C842.454 262.521 840.136 261.976 838.192 260.885C836.261 259.782 834.772 258.226 833.726 256.214C832.681 254.192 832.158 251.8 832.158 249.038C832.158 246.345 832.681 243.981 833.726 241.947C834.772 239.913 836.244 238.328 838.141 237.192C840.05 236.055 842.289 235.487 844.857 235.487C846.584 235.487 848.192 235.765 849.681 236.322C851.181 236.868 852.488 237.692 853.601 238.794C854.726 239.896 855.601 241.282 856.226 242.953C856.851 244.612 857.164 246.555 857.164 248.782V250.777H835.056V246.277H850.329C850.329 245.231 850.101 244.305 849.647 243.498C849.192 242.692 848.562 242.061 847.755 241.606C846.959 241.14 846.033 240.907 844.976 240.907C843.874 240.907 842.897 241.163 842.045 241.675C841.204 242.175 840.545 242.851 840.067 243.703C839.59 244.544 839.346 245.481 839.334 246.515V250.794C839.334 252.089 839.573 253.209 840.05 254.152C840.539 255.095 841.226 255.822 842.113 256.334C842.999 256.845 844.05 257.101 845.266 257.101C846.073 257.101 846.812 256.987 847.482 256.76C848.153 256.532 848.726 256.192 849.204 255.737C849.681 255.282 850.045 254.726 850.295 254.067L857.011 254.51C856.67 256.123 855.971 257.532 854.914 258.737C853.869 259.93 852.516 260.862 850.857 261.532C849.209 262.192 847.306 262.521 845.147 262.521ZM869.369 262.504C867.698 262.504 866.209 262.214 864.903 261.635C863.596 261.044 862.562 260.175 861.8 259.027C861.05 257.868 860.675 256.425 860.675 254.697C860.675 253.243 860.942 252.021 861.476 251.032C862.011 250.044 862.738 249.248 863.658 248.646C864.579 248.044 865.624 247.589 866.795 247.282C867.976 246.976 869.215 246.76 870.511 246.635C872.033 246.476 873.261 246.328 874.192 246.192C875.124 246.044 875.8 245.828 876.221 245.544C876.641 245.26 876.851 244.839 876.851 244.282V244.18C876.851 243.101 876.511 242.265 875.829 241.675C875.158 241.084 874.204 240.788 872.965 240.788C871.658 240.788 870.619 241.078 869.846 241.657C869.073 242.226 868.562 242.942 868.312 243.805L861.596 243.26C861.937 241.669 862.607 240.294 863.607 239.135C864.607 237.964 865.897 237.067 867.476 236.442C869.067 235.805 870.908 235.487 872.999 235.487C874.454 235.487 875.846 235.657 877.175 235.998C878.516 236.339 879.704 236.868 880.738 237.584C881.783 238.3 882.607 239.22 883.209 240.345C883.812 241.459 884.113 242.794 884.113 244.351V262.01H877.226V258.379H877.022C876.601 259.197 876.039 259.919 875.334 260.544C874.63 261.157 873.783 261.64 872.795 261.993C871.806 262.334 870.664 262.504 869.369 262.504ZM871.448 257.493C872.516 257.493 873.459 257.282 874.278 256.862C875.096 256.43 875.738 255.851 876.204 255.123C876.67 254.396 876.903 253.572 876.903 252.652V249.873C876.675 250.021 876.363 250.157 875.965 250.282C875.579 250.396 875.141 250.504 874.653 250.606C874.164 250.697 873.675 250.782 873.187 250.862C872.698 250.93 872.255 250.993 871.857 251.05C871.005 251.175 870.261 251.373 869.624 251.646C868.988 251.919 868.494 252.288 868.141 252.754C867.789 253.209 867.613 253.777 867.613 254.459C867.613 255.447 867.971 256.203 868.687 256.726C869.414 257.237 870.334 257.493 871.448 257.493ZM889.746 262.01V235.828H896.667V240.447H896.974C897.519 238.913 898.428 237.703 899.701 236.817C900.974 235.93 902.496 235.487 904.269 235.487C906.065 235.487 907.593 235.936 908.854 236.834C910.116 237.72 910.957 238.925 911.377 240.447H911.65C912.184 238.947 913.15 237.748 914.547 236.851C915.957 235.942 917.621 235.487 919.542 235.487C921.985 235.487 923.968 236.265 925.491 237.822C927.025 239.368 927.792 241.561 927.792 244.402V262.01H920.547V245.834C920.547 244.379 920.161 243.288 919.388 242.561C918.616 241.834 917.65 241.47 916.491 241.47C915.172 241.47 914.144 241.89 913.405 242.731C912.667 243.561 912.297 244.657 912.297 246.021V262.01H905.258V245.68C905.258 244.396 904.888 243.373 904.15 242.612C903.422 241.851 902.462 241.47 901.269 241.47C900.462 241.47 899.735 241.675 899.087 242.084C898.451 242.481 897.945 243.044 897.57 243.771C897.195 244.487 897.008 245.328 897.008 246.294V262.01H889.746ZM955.312 243.294L948.664 243.703C948.55 243.135 948.306 242.623 947.931 242.169C947.556 241.703 947.062 241.334 946.448 241.061C945.846 240.777 945.124 240.635 944.283 240.635C943.158 240.635 942.209 240.873 941.437 241.351C940.664 241.817 940.278 242.442 940.278 243.226C940.278 243.851 940.528 244.379 941.028 244.811C941.528 245.243 942.386 245.589 943.601 245.851L948.34 246.805C950.886 247.328 952.783 248.169 954.033 249.328C955.283 250.487 955.908 252.01 955.908 253.896C955.908 255.612 955.403 257.118 954.391 258.413C953.391 259.709 952.016 260.72 950.266 261.447C948.528 262.163 946.522 262.521 944.249 262.521C940.783 262.521 938.022 261.8 935.965 260.356C933.92 258.902 932.721 256.925 932.369 254.425L939.511 254.05C939.726 255.106 940.249 255.913 941.079 256.47C941.908 257.015 942.971 257.288 944.266 257.288C945.539 257.288 946.562 257.044 947.334 256.555C948.119 256.055 948.516 255.413 948.528 254.629C948.516 253.97 948.238 253.43 947.692 253.01C947.147 252.578 946.306 252.248 945.17 252.021L940.636 251.118C938.079 250.606 936.175 249.72 934.925 248.459C933.687 247.197 933.067 245.589 933.067 243.635C933.067 241.953 933.522 240.504 934.431 239.288C935.351 238.072 936.641 237.135 938.3 236.476C939.971 235.817 941.925 235.487 944.164 235.487C947.471 235.487 950.073 236.186 951.971 237.584C953.88 238.981 954.994 240.885 955.312 243.294ZM971.59 271.828V235.828H978.749V240.226H979.073C979.391 239.521 979.851 238.805 980.454 238.078C981.067 237.339 981.863 236.726 982.84 236.237C983.829 235.737 985.056 235.487 986.522 235.487C988.431 235.487 990.192 235.987 991.806 236.987C993.42 237.976 994.709 239.47 995.675 241.47C996.641 243.459 997.124 245.953 997.124 248.953C997.124 251.873 996.653 254.339 995.709 256.351C994.778 258.351 993.505 259.868 991.891 260.902C990.289 261.925 988.494 262.436 986.505 262.436C985.096 262.436 983.897 262.203 982.908 261.737C981.931 261.271 981.13 260.686 980.505 259.981C979.88 259.265 979.403 258.544 979.073 257.817H978.851V271.828H971.59ZM978.698 248.919C978.698 250.476 978.914 251.834 979.346 252.993C979.778 254.152 980.403 255.055 981.221 255.703C982.039 256.339 983.033 256.657 984.204 256.657C985.386 256.657 986.386 256.334 987.204 255.686C988.022 255.027 988.641 254.118 989.062 252.959C989.494 251.788 989.709 250.442 989.709 248.919C989.709 247.407 989.499 246.078 989.079 244.93C988.658 243.782 988.039 242.885 987.221 242.237C986.403 241.589 985.397 241.265 984.204 241.265C983.022 241.265 982.022 241.578 981.204 242.203C980.397 242.828 979.778 243.714 979.346 244.862C978.914 246.01 978.698 247.362 978.698 248.919ZM1001.97 262.01V235.828H1009V240.396H1009.28C1009.75 238.771 1010.56 237.544 1011.68 236.714C1012.81 235.873 1014.1 235.453 1015.57 235.453C1015.93 235.453 1016.32 235.476 1016.74 235.521C1017.16 235.567 1017.53 235.629 1017.85 235.709V242.152C1017.51 242.05 1017.04 241.959 1016.44 241.879C1015.83 241.8 1015.28 241.76 1014.78 241.76C1013.72 241.76 1012.76 241.993 1011.92 242.459C1011.09 242.913 1010.43 243.55 1009.94 244.368C1009.47 245.186 1009.23 246.129 1009.23 247.197V262.01H1001.97ZM1032.22 262.521C1029.57 262.521 1027.28 261.959 1025.35 260.834C1023.43 259.697 1021.94 258.118 1020.9 256.095C1019.85 254.061 1019.33 251.703 1019.33 249.021C1019.33 246.317 1019.85 243.953 1020.9 241.93C1021.94 239.896 1023.43 238.317 1025.35 237.192C1027.28 236.055 1029.57 235.487 1032.22 235.487C1034.86 235.487 1037.15 236.055 1039.07 237.192C1041 238.317 1042.49 239.896 1043.53 241.93C1044.58 243.953 1045.1 246.317 1045.1 249.021C1045.1 251.703 1044.58 254.061 1043.53 256.095C1042.49 258.118 1041 259.697 1039.07 260.834C1037.15 261.959 1034.86 262.521 1032.22 262.521ZM1032.25 256.896C1033.46 256.896 1034.46 256.555 1035.27 255.873C1036.07 255.18 1036.68 254.237 1037.09 253.044C1037.51 251.851 1037.72 250.493 1037.72 248.97C1037.72 247.447 1037.51 246.089 1037.09 244.896C1036.68 243.703 1036.07 242.76 1035.27 242.067C1034.46 241.373 1033.46 241.027 1032.25 241.027C1031.03 241.027 1030.01 241.373 1029.18 242.067C1028.36 242.76 1027.74 243.703 1027.32 244.896C1026.92 246.089 1026.71 247.447 1026.71 248.97C1026.71 250.493 1026.92 251.851 1027.32 253.044C1027.74 254.237 1028.36 255.18 1029.18 255.873C1030.01 256.555 1031.03 256.896 1032.25 256.896ZM1063.75 235.828V241.282H1047.98V235.828H1063.75ZM1051.56 229.555H1058.82V253.964C1058.82 254.635 1058.93 255.157 1059.13 255.532C1059.34 255.896 1059.62 256.152 1059.98 256.3C1060.36 256.447 1060.79 256.521 1061.28 256.521C1061.62 256.521 1061.96 256.493 1062.3 256.436C1062.64 256.368 1062.9 256.317 1063.09 256.282L1064.23 261.686C1063.86 261.8 1063.35 261.93 1062.69 262.078C1062.03 262.237 1061.23 262.334 1060.29 262.368C1058.54 262.436 1057.01 262.203 1055.69 261.669C1054.38 261.135 1053.36 260.305 1052.64 259.18C1051.91 258.055 1051.55 256.635 1051.56 254.919V229.555ZM1080.03 262.521C1077.38 262.521 1075.09 261.959 1073.16 260.834C1071.24 259.697 1069.76 258.118 1068.71 256.095C1067.67 254.061 1067.14 251.703 1067.14 249.021C1067.14 246.317 1067.67 243.953 1068.71 241.93C1069.76 239.896 1071.24 238.317 1073.16 237.192C1075.09 236.055 1077.38 235.487 1080.03 235.487C1082.68 235.487 1084.96 236.055 1086.88 237.192C1088.81 238.317 1090.3 239.896 1091.35 241.93C1092.39 243.953 1092.92 246.317 1092.92 249.021C1092.92 251.703 1092.39 254.061 1091.35 256.095C1090.3 258.118 1088.81 259.697 1086.88 260.834C1084.96 261.959 1082.68 262.521 1080.03 262.521ZM1080.06 256.896C1081.27 256.896 1082.27 256.555 1083.08 255.873C1083.89 255.18 1084.49 254.237 1084.9 253.044C1085.32 251.851 1085.53 250.493 1085.53 248.97C1085.53 247.447 1085.32 246.089 1084.9 244.896C1084.49 243.703 1083.89 242.76 1083.08 242.067C1082.27 241.373 1081.27 241.027 1080.06 241.027C1078.85 241.027 1077.82 241.373 1076.99 242.067C1076.18 242.76 1075.56 243.703 1075.14 244.896C1074.73 246.089 1074.52 247.447 1074.52 248.97C1074.52 250.493 1074.73 251.851 1075.14 253.044C1075.56 254.237 1076.18 255.18 1076.99 255.873C1077.82 256.555 1078.85 256.896 1080.06 256.896ZM1109.47 262.521C1106.78 262.521 1104.48 261.953 1102.55 260.817C1100.63 259.669 1099.15 258.078 1098.11 256.044C1097.09 254.01 1096.58 251.669 1096.58 249.021C1096.58 246.339 1097.1 243.987 1098.13 241.964C1099.18 239.93 1100.66 238.345 1102.58 237.209C1104.5 236.061 1106.78 235.487 1109.43 235.487C1111.72 235.487 1113.72 235.902 1115.43 236.731C1117.15 237.561 1118.51 238.726 1119.51 240.226C1120.51 241.726 1121.06 243.487 1121.16 245.51H1114.31C1114.11 244.203 1113.6 243.152 1112.77 242.356C1111.96 241.55 1110.88 241.146 1109.55 241.146C1108.43 241.146 1107.44 241.453 1106.6 242.067C1105.77 242.669 1105.13 243.55 1104.66 244.709C1104.19 245.868 1103.96 247.271 1103.96 248.919C1103.96 250.589 1104.19 252.01 1104.64 253.18C1105.11 254.351 1105.76 255.243 1106.6 255.856C1107.44 256.47 1108.43 256.777 1109.55 256.777C1110.38 256.777 1111.13 256.606 1111.78 256.265C1112.46 255.925 1113.01 255.43 1113.44 254.782C1113.88 254.123 1114.17 253.334 1114.31 252.413H1121.16C1121.05 254.413 1120.5 256.175 1119.52 257.697C1118.56 259.209 1117.22 260.39 1115.52 261.243C1113.81 262.095 1111.8 262.521 1109.47 262.521ZM1137.64 262.521C1134.99 262.521 1132.7 261.959 1130.77 260.834C1128.85 259.697 1127.37 258.118 1126.32 256.095C1125.27 254.061 1124.75 251.703 1124.75 249.021C1124.75 246.317 1125.27 243.953 1126.32 241.93C1127.37 239.896 1128.85 238.317 1130.77 237.192C1132.7 236.055 1134.99 235.487 1137.64 235.487C1140.29 235.487 1142.57 236.055 1144.49 237.192C1146.42 238.317 1147.91 239.896 1148.96 241.93C1150 243.953 1150.52 246.317 1150.52 249.021C1150.52 251.703 1150 254.061 1148.96 256.095C1147.91 258.118 1146.42 259.697 1144.49 260.834C1142.57 261.959 1140.29 262.521 1137.64 262.521ZM1137.67 256.896C1138.88 256.896 1139.88 256.555 1140.69 255.873C1141.5 255.18 1142.1 254.237 1142.51 253.044C1142.93 251.851 1143.14 250.493 1143.14 248.97C1143.14 247.447 1142.93 246.089 1142.51 244.896C1142.1 243.703 1141.5 242.76 1140.69 242.067C1139.88 241.373 1138.88 241.027 1137.67 241.027C1136.46 241.027 1135.43 241.373 1134.6 242.067C1133.79 242.76 1133.17 243.703 1132.75 244.896C1132.34 246.089 1132.13 247.447 1132.13 248.97C1132.13 250.493 1132.34 251.851 1132.75 253.044C1133.17 254.237 1133.79 255.18 1134.6 255.873C1135.43 256.555 1136.46 256.896 1137.67 256.896ZM1162.51 227.101V262.01H1155.25V227.101H1162.51ZM1176.54 265.37H1224.54V217.37H1176.54V265.37ZM1224.54 265.37H1272.54V217.37H1224.54V265.37Z" fill="#373737"/>
<g filter="url(#filter0_b_1550_3464)">
<path d="M275.044 332.543C-22.5198 332.543 -457.57 419.193 -457.57 419.193L-457.571 524.362L2136.2 524.362V332.543C2076.32 326.11 1641.63 419.193 1299.24 419.193C956.86 419.193 572.607 332.543 275.044 332.543Z" fill="url(#paint0_linear_1550_3464)" fill-opacity="0.6"/>
</g>
<g filter="url(#filter1_b_1550_3464)">
<path d="M-777.51 280.036C-1148.72 280.036 -1691.44 382.794 -1691.44 382.794L-1691.44 507.514L1544.27 507.514V280.036C1469.57 272.407 927.29 382.794 500.17 382.794C73.0491 382.794 -406.303 280.036 -777.51 280.036Z" fill="white" fill-opacity="0.6"/>
</g>
<g filter="url(#filter2_b_1550_3464)">
<path d="M1026.04 430.715C593.967 430.715 -37.7438 503.646 -37.7438 503.646L-37.7461 592.165L3728.53 592.165V430.715C3641.57 425.301 3010.38 503.646 2513.22 503.646C2016.07 503.646 1458.12 430.715 1026.04 430.715Z" fill="url(#paint1_linear_1550_3464)" fill-opacity="0.6"/>
</g>
<path d="M683.536 547.489C112.388 547.489 -254.451 444.887 -436.277 393.586L-436.278 602.466L2414.14 602.466V402.504C2348.33 396.88 2283.07 393.586 2219.7 393.586C1786.52 393.586 1397.47 547.489 683.536 547.489Z" fill="white"/>
<g filter="url(#filter3_b_1550_3464)">
<path d="M-411.164 376.241C-788.875 376.241 -1341.1 478.999 -1341.1 478.999L-1341.11 603.719L1951.29 603.719V332.498C1875.28 324.869 1323.5 478.999 888.901 478.999C454.297 478.999 -33.4535 376.241 -411.164 376.241Z" fill="white" fill-opacity="0.3"/>
</g>
</g>
<defs>
<filter id="filter0_b_1550_3464" x="-478.883" y="310.913" width="2636.4" height="234.759" filterUnits="userSpaceOnUse" color-interpolation-filters="sRGB">
<feFlood flood-opacity="0" result="BackgroundImageFix"/>
<feGaussianBlur in="BackgroundImageFix" stdDeviation="10.6557"/>
<feComposite in2="SourceAlpha" operator="in" result="effect1_backgroundBlur_1550_3464"/>
<feBlend mode="normal" in="SourceGraphic" in2="effect1_backgroundBlur_1550_3464" result="shape"/>
</filter>
<filter id="filter1_b_1550_3464" x="-1712.75" y="258.347" width="3278.33" height="270.478" filterUnits="userSpaceOnUse" color-interpolation-filters="sRGB">
<feFlood flood-opacity="0" result="BackgroundImageFix"/>
<feGaussianBlur in="BackgroundImageFix" stdDeviation="10.6557"/>
<feComposite in2="SourceAlpha" operator="in" result="effect1_backgroundBlur_1550_3464"/>
<feBlend mode="normal" in="SourceGraphic" in2="effect1_backgroundBlur_1550_3464" result="shape"/>
</filter>
<filter id="filter2_b_1550_3464" x="-59.0574" y="409.136" width="3808.89" height="204.34" filterUnits="userSpaceOnUse" color-interpolation-filters="sRGB">
<feFlood flood-opacity="0" result="BackgroundImageFix"/>
<feGaussianBlur in="BackgroundImageFix" stdDeviation="10.6557"/>
<feComposite in2="SourceAlpha" operator="in" result="effect1_backgroundBlur_1550_3464"/>
<feBlend mode="normal" in="SourceGraphic" in2="effect1_backgroundBlur_1550_3464" result="shape"/>
</filter>
<filter id="filter3_b_1550_3464" x="-1362.42" y="310.912" width="3335.02" height="314.118" filterUnits="userSpaceOnUse" color-interpolation-filters="sRGB">
<feFlood flood-opacity="0" result="BackgroundImageFix"/>
<feGaussianBlur in="BackgroundImageFix" stdDeviation="10.6557"/>
<feComposite in2="SourceAlpha" operator="in" result="effect1_backgroundBlur_1550_3464"/>
<feBlend mode="normal" in="SourceGraphic" in2="effect1_backgroundBlur_1550_3464" result="shape"/>
</filter>
<linearGradient id="paint0_linear_1550_3464" x1="839.317" y1="332.224" x2="839.317" y2="524.362" gradientUnits="userSpaceOnUse">
<stop stop-color="#62CEE1"/>
<stop offset="1" stop-color="#62CEE1" stop-opacity="0.1"/>
</linearGradient>
<linearGradient id="paint1_linear_1550_3464" x1="1845.39" y1="430.446" x2="1845.39" y2="592.165" gradientUnits="userSpaceOnUse">
<stop stop-color="#62CEE1"/>
<stop offset="1" stop-color="#62CEE1" stop-opacity="0.1"/>
</linearGradient>
<clipPath id="clip0_1550_3464">
<rect x="0.326172" width="1500" height="500" rx="24" fill="white"/>
</clipPath>
</defs>
</svg>
