<svg width="100" height="100" viewBox="0 0 100 100" fill="none" xmlns="http://www.w3.org/2000/svg">
<path d="M40.4301 21.3416C43.736 21.3416 46.7939 21.7987 49.6039 22.7129C52.469 23.5699 54.9208 24.9127 56.9594 26.7411C58.998 28.5695 60.5959 30.8836 61.7529 33.6834C62.91 36.4261 63.4885 39.7115 63.4885 43.5398C63.4885 47.1966 62.9926 50.3964 62.0008 53.139C61.0091 55.8816 59.6041 58.1957 57.7859 60.0813C55.9677 61.9097 53.7638 63.281 51.1742 64.1952C48.6397 65.1095 45.8022 65.5666 42.6616 65.5666C40.2924 65.5666 38.0885 65.1952 36.0499 64.4524V76.1086C36.0499 77.7098 34.6173 79.0226 33.4052 79.194C32.1931 79.4226 30.9534 79.5369 29.6861 79.5369C28.474 79.5369 27.372 79.4511 26.3803 79.2797C25.4436 79.1083 24.6447 78.7655 23.9835 78.2512C23.3223 77.737 22.8265 77.0228 22.4959 76.1086C22.1653 75.2515 22 74.1087 22 72.6803V31.5407C22 29.998 22.303 28.741 22.9091 27.7696C23.5703 26.7983 24.4518 25.9126 25.5538 25.1127C27.2618 23.9699 29.3831 23.0557 31.9176 22.37C34.4521 21.6844 37.2896 21.3416 40.4301 21.3416ZM40.5954 54.0818C46.2705 54.0818 49.108 50.5678 49.108 43.5398C49.108 39.8829 48.3917 37.1688 46.9592 35.3976C45.5818 33.6263 43.5707 32.7406 40.926 32.7406C39.8792 32.7406 38.9425 32.8835 38.116 33.1692C37.2896 33.3977 36.5733 33.6834 35.9672 34.0262V52.8819C36.6284 53.2247 37.3447 53.5104 38.116 53.7389C38.8874 53.9675 39.7139 54.0818 40.5954 54.0818Z" fill="white"/>
<ellipse cx="70.2843" cy="72.1809" rx="6.79599" ry="7.0477" fill="#FE1C64"/>
</svg>
