<svg width="398" height="76" viewBox="0 0 398 76" fill="none" xmlns="http://www.w3.org/2000/svg">
<path d="M88.9612 43.9882C90.228 43.9882 91.6066 43.8763 93.097 43.6524C94.662 43.3539 95.817 42.9808 96.5622 42.5331V33.5788L88.514 34.2504C86.4275 34.3996 84.7135 34.8473 83.3721 35.5935C82.0308 36.3397 81.3601 37.459 81.3601 38.9514C81.3601 40.4438 81.919 41.675 83.0368 42.645C84.2291 43.5405 86.2039 43.9882 88.9612 43.9882ZM88.0669 0C92.091 0 95.7425 0.410408 99.0214 1.23123C102.375 2.05204 105.207 3.32057 107.517 5.03682C109.901 6.67845 111.727 8.80511 112.994 11.4168C114.261 13.9539 114.894 16.9759 114.894 20.4831V45.5552C114.894 47.4953 114.335 49.0996 113.218 50.3681C112.174 51.562 110.907 52.6067 109.417 53.5022C104.573 56.4123 97.7546 57.8674 88.9612 57.8674C85.0116 57.8674 81.4346 57.4943 78.2302 56.7481C75.1004 56.0019 72.3804 54.8826 70.0703 53.3902C67.8347 51.8978 66.0834 49.995 64.8166 47.6818C63.6243 45.3686 63.0281 42.6823 63.0281 39.6229C63.0281 34.4742 64.5558 30.5194 67.6111 27.7585C70.6664 24.9975 75.3985 23.2813 81.8072 22.6097L96.4505 21.0427V20.2592C96.4505 18.0952 95.4817 16.5655 93.5442 15.6701C91.6812 14.7001 88.9612 14.215 85.3842 14.215C82.5524 14.215 79.7952 14.5135 77.1124 15.1105C72.9849 16.0289 69.6808 18.9196 67.3876 14.327C66.7169 12.9092 66.3815 11.4541 66.3815 9.96171C66.3815 8.0216 66.8287 6.4919 67.7229 5.37261C68.6917 4.1787 70.1448 3.17134 72.0823 2.35052C74.2434 1.52971 76.7771 0.932741 79.6834 0.559644C82.6642 0.186544 85.4587 0 88.0669 0Z" fill="white"/>
<path d="M215.369 43.9882C216.636 43.9882 218.014 43.8763 219.505 43.6524C221.07 43.3539 222.225 42.9808 222.97 42.5331V33.5788L214.922 34.2504C212.835 34.3996 211.121 34.8473 209.78 35.5935C208.439 36.3397 207.768 37.459 207.768 38.9514C207.768 40.4438 208.327 41.675 209.445 42.645C210.637 43.5405 212.612 43.9882 215.369 43.9882ZM214.475 0C218.499 0 222.15 0.410408 225.429 1.23123C228.783 2.05204 231.614 3.32057 233.925 5.03682C236.309 6.67845 238.135 8.80511 239.402 11.4168C240.669 13.9539 241.302 16.9759 241.302 20.4831V45.5552C241.302 47.4953 240.743 49.0996 239.625 50.3681C238.582 51.562 237.315 52.6067 235.825 53.5022C230.981 56.4123 224.162 57.8674 215.369 57.8674C211.419 57.8674 207.842 57.4943 204.638 56.7481C201.508 56.0019 198.788 54.8826 196.478 53.3902C194.243 51.8978 192.491 49.995 191.224 47.6818C190.032 45.3686 189.436 42.6823 189.436 39.6229C189.436 34.4742 190.964 30.5194 194.019 27.7585C197.074 24.9975 201.806 23.2813 208.215 22.6097L222.858 21.0427V20.2592C222.858 18.0952 221.89 16.5655 219.952 15.6701C218.089 14.7001 215.369 14.215 211.792 14.215C208.96 14.215 206.203 14.5135 203.52 15.1105C199.393 16.0289 196.089 18.9196 193.795 14.327C193.125 12.9092 192.789 11.4541 192.789 9.96171C192.789 8.0216 193.237 6.4919 194.131 5.37261C195.1 4.1787 196.553 3.17134 198.49 2.35052C200.651 1.52971 203.185 0.932741 206.091 0.559644C209.072 0.186544 211.867 0 214.475 0Z" fill="white"/>
<path d="M260.107 42.1973C259.287 40.3318 258.393 38.2425 257.424 35.9293C256.53 33.6161 255.561 30.9671 254.517 27.9823C253.549 24.9975 252.505 21.6024 251.388 17.7968C249.797 11.8812 245.347 4.76155 252.17 1.79087C253.959 0.970053 255.896 0.559644 257.983 0.559644C260.591 0.559644 262.752 1.11929 264.466 2.23858C266.18 3.28326 267.447 5.29798 268.267 8.28276L277.097 39.0633H277.544C278.439 36.5262 279.295 33.7653 280.115 30.7805C281.009 27.7958 281.866 24.7364 282.686 21.6023C283.506 18.3937 284.251 15.2224 284.922 12.0884C286.662 4.59747 286.73 0.559644 295.653 0.559644C298.261 0.559644 300.422 1.11929 302.136 2.23858C303.85 3.35788 304.707 5.29799 304.707 8.05891C304.707 10.0736 304.446 12.4242 303.924 15.1105C303.403 17.7221 302.695 20.5204 301.801 23.5052C300.981 26.4899 299.975 29.5866 298.783 32.7953C297.665 35.9293 296.472 39.026 295.206 42.0854C293.939 45.1448 292.635 48.0549 291.293 50.8159C289.952 53.5022 288.648 55.9273 287.381 58.0913C285.294 61.7476 283.357 64.7324 281.568 67.0456C279.78 69.3588 278.066 71.1497 276.426 72.4182C274.787 73.7614 273.148 74.6568 271.508 75.1045C269.869 75.6268 268.155 75.888 266.366 75.888C263.236 75.888 260.703 74.9553 258.765 73.0898C253.919 68.4235 256.423 65.9925 262.454 59.5463C265.332 56.4703 265.694 54.1414 264.313 51.1922C263.463 49.3769 261.82 46.0029 260.107 42.1973Z" fill="white"/>
<path d="M335.336 43.9882C336.603 43.9882 337.982 43.8763 339.472 43.6524C341.037 43.3539 342.192 42.9808 342.938 42.5331V33.5788L334.889 34.2504C332.803 34.3996 331.089 34.8473 329.747 35.5935C328.406 36.3397 327.735 37.459 327.735 38.9514C327.735 40.4438 328.294 41.675 329.412 42.645C330.604 43.5405 332.579 43.9882 335.336 43.9882ZM334.442 0C338.466 0 342.118 0.410408 345.397 1.23123C348.75 2.05204 351.582 3.32057 353.892 5.03682C356.277 6.67845 358.102 8.80511 359.369 11.4168C360.636 13.9539 361.27 16.9759 361.27 20.4831V45.5552C361.27 47.4953 360.711 49.0996 359.593 50.3681C358.549 51.562 357.283 52.6067 355.792 53.5022C350.948 56.4123 344.13 57.8674 335.336 57.8674C331.387 57.8674 327.81 57.4943 324.606 56.7481C321.476 56.0019 318.756 54.8826 316.446 53.3902C314.21 51.8978 312.459 49.995 311.192 47.6818C310 45.3686 309.403 42.6823 309.403 39.6229C309.403 34.4742 310.931 30.5194 313.986 27.7585C317.042 24.9975 321.774 23.2813 328.183 22.6097L342.826 21.0427V20.2592C342.826 18.0952 341.857 16.5655 339.919 15.6701C338.056 14.7001 335.336 14.215 331.76 14.215C328.928 14.215 326.17 14.5135 323.488 15.1105C319.36 16.0289 316.056 18.9196 313.763 14.327C313.092 12.9092 312.757 11.4541 312.757 9.96171C312.757 8.0216 313.204 6.4919 314.098 5.37261C315.067 4.1787 316.52 3.17134 318.458 2.35052C320.619 1.52971 323.152 0.932741 326.059 0.559644C329.039 0.186544 331.834 0 334.442 0Z" fill="white"/>
<path d="M151.831 2.45748e-05C156.302 2.45748e-05 160.438 0.596977 164.239 1.79089C168.114 2.91018 171.43 4.66374 174.187 7.05157C176.944 9.43939 179.105 12.4615 180.67 16.1178C182.235 19.6996 183.018 23.9902 183.018 28.9897C183.018 33.7654 182.347 37.9441 181.006 41.5258C179.664 45.1075 177.764 48.1296 175.305 50.5921C172.846 52.9799 169.865 54.7708 166.362 55.9647C162.934 57.1586 159.097 57.7555 154.849 57.7555C151.645 57.7555 148.664 57.2705 145.907 56.3004V71.5228C145.907 73.614 143.969 75.3284 142.33 75.5523C140.69 75.8508 139.013 76 137.299 76C135.66 76 134.17 75.8881 132.828 75.6642C131.561 75.4404 130.481 74.9926 129.587 74.3211C128.692 73.6495 128.022 72.7167 127.575 71.5228C127.127 70.4035 126.904 68.9111 126.904 67.0457V13.3196C126.904 11.3049 127.314 9.66325 128.133 8.39472C129.028 7.12619 130.22 5.96958 131.71 4.92491C134.021 3.43252 136.89 2.23861 140.318 1.34318C143.745 0.447739 147.583 2.45748e-05 151.831 2.45748e-05ZM152.054 42.757C159.73 42.757 163.568 38.1679 163.568 28.9897C163.568 24.2141 162.599 20.6696 160.662 18.3564C158.799 16.0432 156.079 14.8866 152.502 14.8866C151.086 14.8866 149.819 15.0732 148.701 15.4463C147.583 15.7447 146.614 16.1178 145.795 16.5656V41.19C146.689 41.6377 147.658 42.0108 148.701 42.3093C149.744 42.6078 150.862 42.757 152.054 42.757Z" fill="white"/>
<path d="M24.927 0C29.3982 0 33.5341 0.596953 37.3347 1.79087C41.2097 2.91016 44.5259 4.66372 47.2831 7.05154C50.0404 9.43937 52.2014 12.4615 53.7664 16.1178C55.3313 19.6996 56.1138 23.9902 56.1138 28.9897C56.1138 33.7653 55.4431 37.944 54.1017 41.5258C52.7603 45.1075 50.8601 48.1296 48.4009 50.592C45.9417 52.9799 42.9609 54.7707 39.4585 55.9646C36.0305 57.1586 32.1928 57.7555 27.9451 57.7555C24.7407 57.7555 21.7599 57.2705 19.0027 56.3004V71.5228C19.0027 73.614 17.0651 75.3284 15.4257 75.5523C13.7862 75.8507 12.1095 76 10.3956 76C8.75613 76 7.26573 75.888 5.92437 75.6642C4.65752 75.4403 3.57697 74.9926 2.68273 74.321C1.78848 73.6495 1.11781 72.7167 0.670688 71.5228C0.223567 70.4035 0 68.9111 0 67.0456V13.3196C0 11.3049 0.409864 9.66323 1.22959 8.39469C2.12383 7.12616 3.31615 5.96956 4.80656 4.92489C7.11668 3.43249 9.98572 2.23858 13.4137 1.34315C16.8416 0.447715 20.6794 0 24.927 0ZM25.1506 42.757C32.8262 42.757 36.664 38.1679 36.664 28.9897C36.664 24.214 35.6952 20.6696 33.7577 18.3564C31.8947 16.0432 29.1747 14.8866 25.5977 14.8866C24.1818 14.8866 22.915 15.0731 21.7972 15.4462C20.6794 15.7447 19.7106 16.1178 18.8909 16.5655V41.19C19.7851 41.6377 20.7539 42.0108 21.7972 42.3093C22.8405 42.6077 23.9583 42.757 25.1506 42.757Z" fill="white"/>
<ellipse cx="388.808" cy="48.6416" rx="9.19168" ry="9.20392" fill="#FE1C64"/>
</svg>
